<svg height="512" viewBox="0 0 60 60" width="512" xmlns="http://www.w3.org/2000/svg"><g id="Page-1" fill="none" fill-rule="evenodd"><g id="005---Add-Email" fill="rgb(0,0,0)" fill-rule="nonzero"><path id="Shape" d="m59.0791 23.8926c-.0043-.0059-.0111-.0084-.0155-.0142-.2116605-.2968499-.4553622-.5694926-.7267-.813l-11.0069-9.8654c-2.149523-7.79720361-9.2415899-13.19884381-17.3296573-13.19905383-8.0880673-.00021002-15.1804148 5.40106186-17.3303427 13.19815383l-11.0064 9.8654c-1.05903215.9487974-1.66401662 2.303612-1.6636 3.7255v28.21c.00325114 2.760076 2.23992404 4.9967489 5 5h50c2.760076-.0032511 4.9967489-2.239924 5-5v-28.21c-.0013506-1.0253586-.3176884-2.0255475-.9062-2.8652-.0068-.0101-.0075-.0223-.0147-.0322zm-1.0791 2.8974v28.21c.0005919.596095-.1773909 1.1787014-.511 1.6727l-20.96-15.1769 21.351-15.4976c.0754117.257339.1157754.5236724.12.7918zm-28-24.79c8.836556 0 16 7.163444 16 16s-7.163444 16-16 16-16-7.163444-16-16c.0100847-8.83237539 7.1676246-15.98991526 16-16zm-17.92 14.4114c-.0457.5245-.08 1.0523-.08 1.5886 0 9.9411255 8.0588745 18 18 18s18-8.0588745 18-18c0-.5356-.0344-1.0629-.08-1.5867l8.8416 7.9257-25.0575 18.1883c-1.0302102.7465894-2.4190132.7632143-3.4668.0415l-2.6627-1.838-.0112-.0077-22.8952-15.8042c.09947228-.1303562.20965501-.2521794.3294-.3642zm-9.5689 40.2613c-.33369479-.4939633-.51171753-1.0765863-.5111-1.6727l-.0000016-28.1129 21.3160016 14.7141zm2.4889 1.3273c-.25703048-.0035681-.51250581-.0405448-.76-.11l20.8221-15.084 2.04 1.4081c1.7459574 1.2030765 4.0605308 1.175473 5.7773-.0689l1.9474-1.4135 20.9332 15.1588c-.2475153.0692918-.502991.1061004-.76.1095z"/><path id="Shape" d="m19 22h7v7c.0011025 1.1041125.8958875 1.9988975 2 2h4c1.1041125-.0011025 1.9988975-.8958875 2-2v-7h7c1.1041125-.0011025 1.9988975-.8958875 2-2v-4c-.0011025-1.1041125-.8958875-1.9988975-2-2h-7v-7c-.0011025-1.10411252-.8958875-1.99889754-2-2h-4c-1.1041125.00110246-1.9988975.89588748-2 2v7h-7c-1.1041125.0011025-1.9988975.8958875-2 2v4c.0011025 1.1041125.8958875 1.9988975 2 2zm0-6h7c1.1041125-.0011025 1.9988975-.8958875 2-2v-7h4v7c.0011025 1.1041125.8958875 1.9988975 2 2l7-.0015v4.0015h-7c-1.1041125.0011025-1.9988975.8958875-2 2v7h-4v-7c-.0011025-1.1041125-.8958875-1.9988975-2-2h-7z"/></g></g></svg>