<svg height="512" viewBox="0 0 60 60" width="512" xmlns="http://www.w3.org/2000/svg"><g id="Page-1" fill="none" fill-rule="evenodd"><g id="006---Remove-Email" fill="rgb(0,0,0)" fill-rule="nonzero" transform="translate(0 -1)"><path id="Shape" d="m59.0791 24.8926c-.004-.0056-.01-.0079-.0145-.0133-.2116195-.2971554-.4553219-.5701007-.7267-.8139l-11.0079-9.8673c-2.1494795-7.79730862-9.2416526-13.19901339-17.3298096-13.19913007s-15.1804859 5.40138347-17.3301904 13.19863007l-11.0069 9.8669c-1.05843773.9491858-1.6631488 2.3037953-1.6631 3.7255v28.21c.00325114 2.760076 2.23992404 4.9967489 5 5h50c2.760076-.0032511 4.9967489-2.239924 5-5v-28.21c-.0013776-1.0261422-.3180343-2.027079-.9071-2.8673-.0064-.0094-.007-.0208-.0138-.0301zm-1.0791 2.8974v28.21c.0005919.596095-.1773909 1.1787014-.511 1.6727l-20.959-15.1768 21.35-15.4977c.0754117.257339.1157754.5236724.12.7918zm-28-24.79c8.836556 0 16 7.163444 16 16s-7.163444 16-16 16-16-7.163444-16-16c.0100847-8.8323754 7.1676246-15.98991526 16-16zm-17.92 14.4128c-.046.524-.08 1.0514-.08 1.5872 0 9.9411255 8.0588745 18 18 18s18-8.0588745 18-18c0-.5356-.0344-1.0629-.08-1.5868l8.8416 7.9258-25.0575 18.1883c-1.0301534.7456432-2.4180877.7622625-3.4658.0415l-2.6676-1.8413-.0056-.0039-22.8964-15.8047c.09952043-.1302857.20966382-.2521024.3293-.3642zm-9.569 40.2597c-.33359324-.4939315-.51157644-1.0764694-.511-1.6725l-.0000014-28.1125 21.3157014 14.7136zm2.489 1.3275c-.25703272-.0035398-.5125117-.040517-.76-.11l20.822-15.0835 2.04 1.4079c1.7463242 1.2030679 4.0611588 1.175466 5.7783-.0689l1.9466-1.413 20.9331 15.158c-.247517.069284-.5029916.1060925-.76.1095z"/><path id="Shape" d="m19 23h22c1.1040441-.0012675 1.9987325-.8959559 2-2v-4c-.0012675-1.1040441-.8959559-1.9987325-2-2h-22c-1.1040441.0012675-1.9987325.8959559-2 2v4c.0012675 1.1040441.8959559 1.9987325 2 2zm0-6 22-.0015v4.0015h-22z"/></g></g></svg>